<svg width="36" height="36" viewBox="0 0 36 36" fill="none" xmlns="http://www.w3.org/2000/svg">
<rect width="36" height="36" rx="18" fill="white" fill-opacity="0.5"/>
<path d="M16.1822 9.17702C12.6875 9.85906 9.87147 12.6681 9.18239 16.1521C7.88158 22.7264 13.8126 27.6273 18.281 26.9347C19.7295 26.7097 20.4397 25.0152 19.7752 23.7108C18.9631 22.1147 20.1233 20.2514 21.9163 20.2514H24.7183C25.9769 20.2514 26.9965 19.2108 27 17.9557C26.9824 12.415 21.9409 8.05551 16.1822 9.17702ZM12.3747 20.2514C11.7524 20.2514 11.2496 19.7487 11.2496 19.1264C11.2496 18.5041 11.7524 18.0014 12.3747 18.0014C12.9969 18.0014 13.4997 18.5041 13.4997 19.1264C13.4997 19.7487 12.9969 20.2514 12.3747 20.2514ZM13.4997 15.7513C12.8774 15.7513 12.3747 15.2486 12.3747 14.6263C12.3747 14.004 12.8774 13.5013 13.4997 13.5013C14.122 13.5013 14.6247 14.004 14.6247 14.6263C14.6247 15.2486 14.122 15.7513 13.4997 15.7513ZM17.9998 13.5013C17.3775 13.5013 16.8748 12.9986 16.8748 12.3763C16.8748 11.754 17.3775 11.2513 17.9998 11.2513C18.6221 11.2513 19.1248 11.754 19.1248 12.3763C19.1248 12.9986 18.6221 13.5013 17.9998 13.5013ZM22.4999 15.7513C21.8776 15.7513 21.3749 15.2486 21.3749 14.6263C21.3749 14.004 21.8776 13.5013 22.4999 13.5013C23.1222 13.5013 23.6249 14.004 23.6249 14.6263C23.6249 15.2486 23.1222 15.7513 22.4999 15.7513Z" fill="#999B9E"/>
</svg>
