<svg width="14" height="18" viewBox="0 0 14 18" fill="none" xmlns="http://www.w3.org/2000/svg">
<g clip-path="url(#clip0)">
<path d="M9.9802 7.58428L10.0094 7.86656L10.2667 7.98621C11.863 8.72841 13 10.0057 13 11.5312C13 11.7211 12.8461 11.875 12.6563 11.875H7.87504H7.37504V12.375V15.9798L6.75002 17.2299L6.125 15.9798V12.375V11.875H5.625H0.84375C0.653896 11.875 0.5 11.7211 0.5 11.5312C0.5 10.0196 1.62103 8.73581 3.23325 7.98621L3.4906 7.86657L3.5198 7.58428L3.94994 3.42645L4.00698 2.875H3.45259H1.96875C1.7789 2.875 1.625 2.7211 1.625 2.53125V0.84375C1.625 0.653896 1.7789 0.5 1.96875 0.5H11.5312C11.7211 0.5 11.875 0.653896 11.875 0.84375V2.53125C11.875 2.7211 11.7211 2.875 11.5312 2.875H10.0474H9.49302L9.55006 3.42645L9.9802 7.58428Z" fill="white" stroke="#999B9E"/>
</g>
<defs>
<clipPath id="clip0">
<rect width="13.5" height="18" fill="white"/>
</clipPath>
</defs>
</svg>
